<svg xmlns="http://www.w3.org/2000/svg" width="32" height="32" viewBox="0 0 32 32" shape-rendering="crispEdges"><rect x="0" y="0" width="20" height="1" fill="#808080"/><rect x="0" y="1" width="20" height="1" fill="#808080"/><rect x="0" y="2" width="2" height="1" fill="#808080"/><rect x="2" y="2" width="16" height="1" fill="#ffffff"/><rect x="18" y="2" width="2" height="1" fill="#c0c0c0"/><rect x="20" y="2" width="2" height="1" fill="#808080"/><rect x="30" y="2" width="2" height="1" fill="#000080"/><rect x="0" y="3" width="2" height="1" fill="#808080"/><rect x="2" y="3" width="16" height="1" fill="#ffffff"/><rect x="18" y="3" width="2" height="1" fill="#c0c0c0"/><rect x="20" y="3" width="2" height="1" fill="#808080"/><rect x="30" y="3" width="2" height="1" fill="#000080"/><rect x="0" y="4" width="2" height="1" fill="#808080"/><rect x="2" y="4" width="16" height="1" fill="#ffffff"/><rect x="18" y="4" width="2" height="1" fill="#c0c0c0"/><rect x="20" y="4" width="2" height="1" fill="#ffffff"/><rect x="22" y="4" width="2" height="1" fill="#808080"/><rect x="28" y="4" width="2" height="1" fill="#000080"/><rect x="30" y="4" width="2" height="1" fill="#0000ff"/><rect x="0" y="5" width="2" height="1" fill="#808080"/><rect x="2" y="5" width="16" height="1" fill="#ffffff"/><rect x="18" y="5" width="2" height="1" fill="#c0c0c0"/><rect x="20" y="5" width="2" height="1" fill="#ffffff"/><rect x="22" y="5" width="2" height="1" fill="#808080"/><rect x="28" y="5" width="2" height="1" fill="#000080"/><rect x="30" y="5" width="2" height="1" fill="#0000ff"/><rect x="0" y="6" width="2" height="1" fill="#808080"/><rect x="2" y="6" width="16" height="1" fill="#ffffff"/><rect x="18" y="6" width="8" height="1" fill="#000000"/><rect x="26" y="6" width="2" height="1" fill="#000080"/><rect x="28" y="6" width="2" height="1" fill="#0000ff"/><rect x="0" y="7" width="2" height="1" fill="#808080"/><rect x="2" y="7" width="16" height="1" fill="#ffffff"/><rect x="18" y="7" width="8" height="1" fill="#000000"/><rect x="26" y="7" width="2" height="1" fill="#000080"/><rect x="28" y="7" width="2" height="1" fill="#0000ff"/><rect x="0" y="8" width="2" height="1" fill="#808080"/><rect x="2" y="8" width="20" height="1" fill="#ffffff"/><rect x="22" y="8" width="2" height="1" fill="#c0c0c0"/><rect x="24" y="8" width="2" height="1" fill="#000000"/><rect x="26" y="8" width="2" height="1" fill="#000080"/><rect x="28" y="8" width="2" height="1" fill="#ffffff"/><rect x="30" y="8" width="2" height="1" fill="#0000ff"/><rect x="0" y="9" width="2" height="1" fill="#808080"/><rect x="2" y="9" width="20" height="1" fill="#ffffff"/><rect x="22" y="9" width="2" height="1" fill="#c0c0c0"/><rect x="24" y="9" width="2" height="1" fill="#000000"/><rect x="26" y="9" width="2" height="1" fill="#000080"/><rect x="28" y="9" width="2" height="1" fill="#ffffff"/><rect x="30" y="9" width="2" height="1" fill="#0000ff"/><rect x="0" y="10" width="2" height="1" fill="#808080"/><rect x="2" y="10" width="20" height="1" fill="#ffffff"/><rect x="22" y="10" width="2" height="1" fill="#c0c0c0"/><rect x="24" y="10" width="4" height="1" fill="#000000"/><rect x="28" y="10" width="2" height="1" fill="#0000ff"/><rect x="30" y="10" width="2" height="1" fill="#000080"/><rect x="0" y="11" width="2" height="1" fill="#808080"/><rect x="2" y="11" width="20" height="1" fill="#ffffff"/><rect x="22" y="11" width="2" height="1" fill="#c0c0c0"/><rect x="24" y="11" width="4" height="1" fill="#000000"/><rect x="28" y="11" width="2" height="1" fill="#0000ff"/><rect x="30" y="11" width="2" height="1" fill="#000080"/><rect x="0" y="12" width="2" height="1" fill="#808080"/><rect x="2" y="12" width="20" height="1" fill="#ffffff"/><rect x="22" y="12" width="2" height="1" fill="#808000"/><rect x="24" y="12" width="6" height="1" fill="#000000"/><rect x="30" y="12" width="2" height="1" fill="#000080"/><rect x="0" y="13" width="2" height="1" fill="#808080"/><rect x="2" y="13" width="20" height="1" fill="#ffffff"/><rect x="22" y="13" width="2" height="1" fill="#808000"/><rect x="24" y="13" width="6" height="1" fill="#000000"/><rect x="30" y="13" width="2" height="1" fill="#000080"/><rect x="0" y="14" width="2" height="1" fill="#808080"/><rect x="2" y="14" width="18" height="1" fill="#ffffff"/><rect x="20" y="14" width="2" height="1" fill="#808000"/><rect x="22" y="14" width="2" height="1" fill="#ffff00"/><rect x="24" y="14" width="2" height="1" fill="#808000"/><rect x="26" y="14" width="6" height="1" fill="#000000"/><rect x="0" y="15" width="2" height="1" fill="#808080"/><rect x="2" y="15" width="18" height="1" fill="#ffffff"/><rect x="20" y="15" width="2" height="1" fill="#808000"/><rect x="22" y="15" width="2" height="1" fill="#ffff00"/><rect x="24" y="15" width="2" height="1" fill="#808000"/><rect x="26" y="15" width="6" height="1" fill="#000000"/><rect x="0" y="16" width="2" height="1" fill="#808080"/><rect x="2" y="16" width="16" height="1" fill="#ffffff"/><rect x="18" y="16" width="2" height="1" fill="#808000"/><rect x="20" y="16" width="2" height="1" fill="#ffff00"/><rect x="22" y="16" width="2" height="1" fill="#ffffff"/><rect x="24" y="16" width="2" height="1" fill="#808000"/><rect x="26" y="16" width="2" height="1" fill="#808080"/><rect x="28" y="16" width="2" height="1" fill="#000000"/><rect x="0" y="17" width="2" height="1" fill="#808080"/><rect x="2" y="17" width="16" height="1" fill="#ffffff"/><rect x="18" y="17" width="2" height="1" fill="#808000"/><rect x="20" y="17" width="2" height="1" fill="#ffff00"/><rect x="22" y="17" width="2" height="1" fill="#ffffff"/><rect x="24" y="17" width="2" height="1" fill="#808000"/><rect x="26" y="17" width="2" height="1" fill="#808080"/><rect x="28" y="17" width="2" height="1" fill="#000000"/><rect x="0" y="18" width="2" height="1" fill="#808080"/><rect x="2" y="18" width="4" height="1" fill="#ffffff"/><rect x="6" y="18" width="4" height="1" fill="#000000"/><rect x="10" y="18" width="6" height="1" fill="#ffffff"/><rect x="16" y="18" width="2" height="1" fill="#808000"/><rect x="18" y="18" width="2" height="1" fill="#ffff00"/><rect x="20" y="18" width="2" height="1" fill="#ffffff"/><rect x="22" y="18" width="2" height="1" fill="#808000"/><rect x="24" y="18" width="4" height="1" fill="#000000"/><rect x="0" y="19" width="2" height="1" fill="#808080"/><rect x="2" y="19" width="4" height="1" fill="#ffffff"/><rect x="6" y="19" width="4" height="1" fill="#000000"/><rect x="10" y="19" width="6" height="1" fill="#ffffff"/><rect x="16" y="19" width="2" height="1" fill="#808000"/><rect x="18" y="19" width="2" height="1" fill="#ffff00"/><rect x="20" y="19" width="2" height="1" fill="#ffffff"/><rect x="22" y="19" width="2" height="1" fill="#808000"/><rect x="24" y="19" width="4" height="1" fill="#000000"/><rect x="0" y="20" width="2" height="1" fill="#808080"/><rect x="2" y="20" width="4" height="1" fill="#ffffff"/><rect x="6" y="20" width="2" height="1" fill="#000000"/><rect x="8" y="20" width="2" height="1" fill="#ffffff"/><rect x="10" y="20" width="2" height="1" fill="#000000"/><rect x="12" y="20" width="2" height="1" fill="#ffffff"/><rect x="14" y="20" width="2" height="1" fill="#808000"/><rect x="16" y="20" width="10" height="1" fill="#000000"/><rect x="0" y="21" width="2" height="1" fill="#808080"/><rect x="2" y="21" width="4" height="1" fill="#ffffff"/><rect x="6" y="21" width="2" height="1" fill="#000000"/><rect x="8" y="21" width="2" height="1" fill="#ffffff"/><rect x="10" y="21" width="2" height="1" fill="#000000"/><rect x="12" y="21" width="2" height="1" fill="#ffffff"/><rect x="14" y="21" width="2" height="1" fill="#808000"/><rect x="16" y="21" width="10" height="1" fill="#000000"/><rect x="0" y="22" width="2" height="1" fill="#808080"/><rect x="2" y="22" width="4" height="1" fill="#ffffff"/><rect x="6" y="22" width="4" height="1" fill="#000000"/><rect x="10" y="22" width="2" height="1" fill="#c0c0c0"/><rect x="12" y="22" width="4" height="1" fill="#000000"/><rect x="16" y="22" width="6" height="1" fill="#ffffff"/><rect x="22" y="22" width="2" height="1" fill="#c0c0c0"/><rect x="24" y="22" width="2" height="1" fill="#000000"/><rect x="0" y="23" width="2" height="1" fill="#808080"/><rect x="2" y="23" width="4" height="1" fill="#ffffff"/><rect x="6" y="23" width="4" height="1" fill="#000000"/><rect x="10" y="23" width="2" height="1" fill="#c0c0c0"/><rect x="12" y="23" width="4" height="1" fill="#000000"/><rect x="16" y="23" width="6" height="1" fill="#ffffff"/><rect x="22" y="23" width="2" height="1" fill="#c0c0c0"/><rect x="24" y="23" width="2" height="1" fill="#000000"/><rect x="0" y="24" width="2" height="1" fill="#808080"/><rect x="2" y="24" width="4" height="1" fill="#ffffff"/><rect x="6" y="24" width="2" height="1" fill="#000000"/><rect x="8" y="24" width="6" height="1" fill="#ffffff"/><rect x="14" y="24" width="2" height="1" fill="#000000"/><rect x="16" y="24" width="6" height="1" fill="#ffffff"/><rect x="22" y="24" width="2" height="1" fill="#c0c0c0"/><rect x="24" y="24" width="2" height="1" fill="#000000"/><rect x="0" y="25" width="2" height="1" fill="#808080"/><rect x="2" y="25" width="4" height="1" fill="#ffffff"/><rect x="6" y="25" width="2" height="1" fill="#000000"/><rect x="8" y="25" width="6" height="1" fill="#ffffff"/><rect x="14" y="25" width="2" height="1" fill="#000000"/><rect x="16" y="25" width="6" height="1" fill="#ffffff"/><rect x="22" y="25" width="2" height="1" fill="#c0c0c0"/><rect x="24" y="25" width="2" height="1" fill="#000000"/><rect x="0" y="26" width="2" height="1" fill="#808080"/><rect x="2" y="26" width="4" height="1" fill="#ffffff"/><rect x="6" y="26" width="2" height="1" fill="#000000"/><rect x="8" y="26" width="14" height="1" fill="#ffffff"/><rect x="22" y="26" width="2" height="1" fill="#c0c0c0"/><rect x="24" y="26" width="2" height="1" fill="#000000"/><rect x="0" y="27" width="2" height="1" fill="#808080"/><rect x="2" y="27" width="4" height="1" fill="#ffffff"/><rect x="6" y="27" width="2" height="1" fill="#000000"/><rect x="8" y="27" width="14" height="1" fill="#ffffff"/><rect x="22" y="27" width="2" height="1" fill="#c0c0c0"/><rect x="24" y="27" width="2" height="1" fill="#000000"/><rect x="0" y="28" width="2" height="1" fill="#808080"/><rect x="2" y="28" width="22" height="1" fill="#c0c0c0"/><rect x="24" y="28" width="2" height="1" fill="#000000"/><rect x="0" y="29" width="2" height="1" fill="#808080"/><rect x="2" y="29" width="22" height="1" fill="#c0c0c0"/><rect x="24" y="29" width="2" height="1" fill="#000000"/><rect x="0" y="30" width="26" height="1" fill="#000000"/><rect x="0" y="31" width="26" height="1" fill="#000000"/></svg>