<svg xmlns="http://www.w3.org/2000/svg" width="31" height="31" viewBox="0 0 31 31" shape-rendering="crispEdges"><rect x="16" y="0" width="1" height="1" fill="#8c8c8c"/><rect x="15" y="1" width="1" height="1" fill="#737373"/><rect x="16" y="1" width="1" height="1" fill="#9cad7b"/><rect x="17" y="1" width="1" height="1" fill="#525252"/><rect x="14" y="2" width="1" height="1" fill="#8c8c8c"/><rect x="15" y="2" width="2" height="1" fill="#ffffff"/><rect x="17" y="2" width="1" height="1" fill="#bdbdbd"/><rect x="18" y="2" width="1" height="1" fill="#525252"/><rect x="13" y="3" width="1" height="1" fill="#737373"/><rect x="14" y="3" width="1" height="1" fill="#efefef"/><rect x="15" y="3" width="1" height="1" fill="#ffd6ff"/><rect x="16" y="3" width="1" height="1" fill="#efefef"/><rect x="17" y="3" width="1" height="1" fill="#ffffff"/><rect x="18" y="3" width="1" height="1" fill="#ceadbd"/><rect x="19" y="3" width="1" height="1" fill="#315239"/><rect x="5" y="4" width="7" height="1" fill="#637b00"/><rect x="12" y="4" width="1" height="1" fill="#8c8c8c"/><rect x="13" y="4" width="2" height="1" fill="#efefef"/><rect x="15" y="4" width="1" height="1" fill="#ffffff"/><rect x="16" y="4" width="1" height="1" fill="#ffffbd"/><rect x="17" y="4" width="2" height="1" fill="#ffffff"/><rect x="19" y="4" width="1" height="1" fill="#bdbdbd"/><rect x="20" y="4" width="1" height="1" fill="#525252"/><rect x="4" y="5" width="1" height="1" fill="#637b00"/><rect x="5" y="5" width="1" height="1" fill="#ffffbd"/><rect x="6" y="5" width="1" height="1" fill="#ffff7b"/><rect x="7" y="5" width="1" height="1" fill="#ffffbd"/><rect x="8" y="5" width="1" height="1" fill="#ffff7b"/><rect x="9" y="5" width="1" height="1" fill="#ffffbd"/><rect x="10" y="5" width="1" height="1" fill="#ced67b"/><rect x="11" y="5" width="1" height="1" fill="#8c8c8c"/><rect x="12" y="5" width="1" height="1" fill="#efefef"/><rect x="13" y="5" width="2" height="1" fill="#ffffff"/><rect x="15" y="5" width="1" height="1" fill="#ffd6ff"/><rect x="16" y="5" width="1" height="1" fill="#ffffff"/><rect x="17" y="5" width="1" height="1" fill="#ffd6ff"/><rect x="18" y="5" width="1" height="1" fill="#efefef"/><rect x="19" y="5" width="1" height="1" fill="#ffffff"/><rect x="20" y="5" width="1" height="1" fill="#bdbdbd"/><rect x="21" y="5" width="1" height="1" fill="#525252"/><rect x="3" y="6" width="1" height="1" fill="#637b00"/><rect x="4" y="6" width="2" height="1" fill="#ffff7b"/><rect x="6" y="6" width="1" height="1" fill="#ced639"/><rect x="7" y="6" width="1" height="1" fill="#ced67b"/><rect x="8" y="6" width="1" height="1" fill="#ced639"/><rect x="9" y="6" width="1" height="1" fill="#9cad00"/><rect x="10" y="6" width="1" height="1" fill="#9c7b7b"/><rect x="11" y="6" width="2" height="1" fill="#ffffff"/><rect x="13" y="6" width="1" height="1" fill="#ffd6ff"/><rect x="14" y="6" width="1" height="1" fill="#ffffbd"/><rect x="15" y="6" width="1" height="1" fill="#00297b"/><rect x="16" y="6" width="1" height="1" fill="#ffffbd"/><rect x="17" y="6" width="1" height="1" fill="#ffd6ff"/><rect x="18" y="6" width="1" height="1" fill="#ffffbd"/><rect x="19" y="6" width="1" height="1" fill="#ffd6ff"/><rect x="20" y="6" width="1" height="1" fill="#efefef"/><rect x="21" y="6" width="1" height="1" fill="#bdbdbd"/><rect x="22" y="6" width="1" height="1" fill="#525252"/><rect x="3" y="7" width="1" height="1" fill="#637b00"/><rect x="4" y="7" width="1" height="1" fill="#ffffbd"/><rect x="5" y="7" width="1" height="1" fill="#ced67b"/><rect x="6" y="7" width="1" height="1" fill="#ced639"/><rect x="7" y="7" width="1" height="1" fill="#ced67b"/><rect x="8" y="7" width="1" height="1" fill="#9c7b00"/><rect x="9" y="7" width="1" height="1" fill="#8c8c8c"/><rect x="10" y="7" width="1" height="1" fill="#ffffbd"/><rect x="11" y="7" width="1" height="1" fill="#ffd6ff"/><rect x="12" y="7" width="1" height="1" fill="#ffffbd"/><rect x="13" y="7" width="1" height="1" fill="#ffffff"/><rect x="14" y="7" width="1" height="1" fill="#00297b"/><rect x="15" y="7" width="1" height="1" fill="#9cadbd"/><rect x="16" y="7" width="3" height="1" fill="#ffffff"/><rect x="19" y="7" width="1" height="1" fill="#efefef"/><rect x="20" y="7" width="1" height="1" fill="#ffffff"/><rect x="21" y="7" width="1" height="1" fill="#efefef"/><rect x="22" y="7" width="1" height="1" fill="#bdbdbd"/><rect x="23" y="7" width="1" height="1" fill="#315239"/><rect x="24" y="7" width="4" height="1" fill="#637b00"/><rect x="3" y="8" width="1" height="1" fill="#637b00"/><rect x="4" y="8" width="1" height="1" fill="#ffff7b"/><rect x="5" y="8" width="1" height="1" fill="#ced639"/><rect x="6" y="8" width="1" height="1" fill="#ced67b"/><rect x="7" y="8" width="1" height="1" fill="#9c7b00"/><rect x="8" y="8" width="1" height="1" fill="#9c7b7b"/><rect x="9" y="8" width="1" height="1" fill="#efefef"/><rect x="10" y="8" width="1" height="1" fill="#ffffff"/><rect x="11" y="8" width="1" height="1" fill="#ffd6ff"/><rect x="12" y="8" width="1" height="1" fill="#ffffff"/><rect x="13" y="8" width="1" height="1" fill="#00297b"/><rect x="14" y="8" width="1" height="1" fill="#9c9c9c"/><rect x="15" y="8" width="1" height="1" fill="#cecece"/><rect x="16" y="8" width="1" height="1" fill="#00297b"/><rect x="17" y="8" width="1" height="1" fill="#ffd6bd"/><rect x="18" y="8" width="1" height="1" fill="#ffffff"/><rect x="19" y="8" width="1" height="1" fill="#ffd6bd"/><rect x="20" y="8" width="1" height="1" fill="#ffffff"/><rect x="21" y="8" width="1" height="1" fill="#ffffbd"/><rect x="22" y="8" width="1" height="1" fill="#ffffff"/><rect x="23" y="8" width="1" height="1" fill="#cead7b"/><rect x="24" y="8" width="1" height="1" fill="#525252"/><rect x="25" y="8" width="1" height="1" fill="#ced67b"/><rect x="26" y="8" width="1" height="1" fill="#ced639"/><rect x="27" y="8" width="1" height="1" fill="#9c7b00"/><rect x="28" y="8" width="1" height="1" fill="#001829"/><rect x="3" y="9" width="1" height="1" fill="#637b00"/><rect x="4" y="9" width="1" height="1" fill="#ffff7b"/><rect x="5" y="9" width="1" height="1" fill="#ced639"/><rect x="6" y="9" width="1" height="1" fill="#9c7b00"/><rect x="7" y="9" width="1" height="1" fill="#637b7b"/><rect x="8" y="9" width="1" height="1" fill="#ffffff"/><rect x="9" y="9" width="1" height="1" fill="#ffffbd"/><rect x="10" y="9" width="1" height="1" fill="#ffffff"/><rect x="11" y="9" width="1" height="1" fill="#ffffbd"/><rect x="12" y="9" width="1" height="1" fill="#00297b"/><rect x="13" y="9" width="1" height="1" fill="#9c9c9c"/><rect x="14" y="9" width="1" height="1" fill="#dedede"/><rect x="15" y="9" width="1" height="1" fill="#00297b"/><rect x="16" y="9" width="1" height="1" fill="#adadad"/><rect x="17" y="9" width="1" height="1" fill="#ffffff"/><rect x="18" y="9" width="1" height="1" fill="#00297b"/><rect x="19" y="9" width="2" height="1" fill="#ffffff"/><rect x="21" y="9" width="1" height="1" fill="#ffd6ff"/><rect x="22" y="9" width="1" height="1" fill="#ffffff"/><rect x="23" y="9" width="1" height="1" fill="#ffd6ff"/><rect x="24" y="9" width="1" height="1" fill="#bdbdbd"/><rect x="25" y="9" width="1" height="1" fill="#212121"/><rect x="26" y="9" width="1" height="1" fill="#ced639"/><rect x="27" y="9" width="1" height="1" fill="#ced67b"/><rect x="28" y="9" width="1" height="1" fill="#637b00"/><rect x="29" y="9" width="1" height="1" fill="#001829"/><rect x="3" y="10" width="1" height="1" fill="#9c7b00"/><rect x="4" y="10" width="1" height="1" fill="#ffff7b"/><rect x="5" y="10" width="1" height="1" fill="#9cad00"/><rect x="6" y="10" width="1" height="1" fill="#8c8c8c"/><rect x="7" y="10" width="1" height="1" fill="#ced6bd"/><rect x="8" y="10" width="1" height="1" fill="#ffd6bd"/><rect x="9" y="10" width="1" height="1" fill="#dedede"/><rect x="10" y="10" width="1" height="1" fill="#cecece"/><rect x="11" y="10" width="1" height="1" fill="#00297b"/><rect x="12" y="10" width="1" height="1" fill="#9cadbd"/><rect x="13" y="10" width="1" height="1" fill="#ced6bd"/><rect x="14" y="10" width="1" height="1" fill="#00297b"/><rect x="15" y="10" width="1" height="1" fill="#9c9c9c"/><rect x="16" y="10" width="1" height="1" fill="#dedede"/><rect x="17" y="10" width="1" height="1" fill="#00297b"/><rect x="18" y="10" width="1" height="1" fill="#9c9c9c"/><rect x="19" y="10" width="1" height="1" fill="#dedede"/><rect x="20" y="10" width="1" height="1" fill="#00297b"/><rect x="21" y="10" width="3" height="1" fill="#ced6bd"/><rect x="24" y="10" width="1" height="1" fill="#ceffbd"/><rect x="25" y="10" width="1" height="1" fill="#bdbdbd"/><rect x="26" y="10" width="1" height="1" fill="#424242"/><rect x="27" y="10" width="1" height="1" fill="#ced67b"/><rect x="28" y="10" width="1" height="1" fill="#9c7b00"/><rect x="29" y="10" width="1" height="1" fill="#001829"/><rect x="3" y="11" width="1" height="1" fill="#637b00"/><rect x="4" y="11" width="1" height="1" fill="#ffffbd"/><rect x="5" y="11" width="1" height="1" fill="#737373"/><rect x="6" y="11" width="1" height="1" fill="#bdbdbd"/><rect x="7" y="11" width="1" height="1" fill="#cecece"/><rect x="8" y="11" width="1" height="1" fill="#ce1010"/><rect x="9" y="11" width="1" height="1" fill="#bd9c9c"/><rect x="10" y="11" width="1" height="1" fill="#00297b"/><rect x="11" y="11" width="1" height="1" fill="#a57b7b"/><rect x="12" y="11" width="1" height="1" fill="#ce1010"/><rect x="13" y="11" width="1" height="1" fill="#31185a"/><rect x="14" y="11" width="1" height="1" fill="#adadad"/><rect x="15" y="11" width="1" height="1" fill="#bdbdbd"/><rect x="16" y="11" width="1" height="1" fill="#00297b"/><rect x="17" y="11" width="1" height="1" fill="#9c9c9c"/><rect x="18" y="11" width="1" height="1" fill="#bdbdbd"/><rect x="19" y="11" width="1" height="1" fill="#00297b"/><rect x="20" y="11" width="1" height="1" fill="#9c9c9c"/><rect x="21" y="11" width="2" height="1" fill="#cecece"/><rect x="23" y="11" width="1" height="1" fill="#bdbdbd"/><rect x="24" y="11" width="1" height="1" fill="#ced6bd"/><rect x="25" y="11" width="1" height="1" fill="#ffd6bd"/><rect x="26" y="11" width="1" height="1" fill="#bdbdbd"/><rect x="27" y="11" width="1" height="1" fill="#525252"/><rect x="28" y="11" width="1" height="1" fill="#637b00"/><rect x="29" y="11" width="1" height="1" fill="#001800"/><rect x="1" y="12" width="1" height="1" fill="#9c7b00"/><rect x="2" y="12" width="1" height="1" fill="#a54a00"/><rect x="3" y="12" width="1" height="1" fill="#ef0800"/><rect x="4" y="12" width="1" height="1" fill="#ad5200"/><rect x="5" y="12" width="1" height="1" fill="#ce0800"/><rect x="6" y="12" width="1" height="1" fill="#ef0000"/><rect x="7" y="12" width="1" height="1" fill="#ef0800"/><rect x="8" y="12" width="1" height="1" fill="#bd4200"/><rect x="9" y="12" width="1" height="1" fill="#9c7300"/><rect x="10" y="12" width="1" height="1" fill="#9c9400"/><rect x="11" y="12" width="1" height="1" fill="#b53900"/><rect x="12" y="12" width="1" height="1" fill="#bd2100"/><rect x="13" y="12" width="1" height="1" fill="#bd2900"/><rect x="14" y="12" width="1" height="1" fill="#ad5a00"/><rect x="15" y="12" width="1" height="1" fill="#a58400"/><rect x="16" y="12" width="1" height="1" fill="#ad4a00"/><rect x="17" y="12" width="1" height="1" fill="#b55200"/><rect x="18" y="12" width="1" height="1" fill="#bd2100"/><rect x="19" y="12" width="1" height="1" fill="#c61800"/><rect x="20" y="12" width="1" height="1" fill="#ad4a00"/><rect x="21" y="12" width="1" height="1" fill="#bd2100"/><rect x="22" y="12" width="1" height="1" fill="#ff0000"/><rect x="23" y="12" width="1" height="1" fill="#f70000"/><rect x="24" y="12" width="1" height="1" fill="#ce1800"/><rect x="25" y="12" width="1" height="1" fill="#bdbdbd"/><rect x="26" y="12" width="1" height="1" fill="#dedede"/><rect x="27" y="12" width="1" height="1" fill="#bdbdbd"/><rect x="28" y="12" width="1" height="1" fill="#525252"/><rect x="29" y="12" width="1" height="1" fill="#001821"/><rect x="0" y="13" width="1" height="1" fill="#9cad00"/><rect x="1" y="13" width="1" height="1" fill="#ffd6ff"/><rect x="2" y="13" width="1" height="1" fill="#efc6c6"/><rect x="3" y="13" width="1" height="1" fill="#f70000"/><rect x="4" y="13" width="1" height="1" fill="#ff0000"/><rect x="5" y="13" width="1" height="1" fill="#ef0000"/><rect x="6" y="13" width="1" height="1" fill="#f70000"/><rect x="7" y="13" width="1" height="1" fill="#ff0000"/><rect x="8" y="13" width="1" height="1" fill="#de0000"/><rect x="9" y="13" width="1" height="1" fill="#d61818"/><rect x="10" y="13" width="1" height="1" fill="#ce0808"/><rect x="11" y="13" width="1" height="1" fill="#ce0000"/><rect x="12" y="13" width="1" height="1" fill="#d62929"/><rect x="13" y="13" width="1" height="1" fill="#ce0000"/><rect x="14" y="13" width="1" height="1" fill="#d64242"/><rect x="15" y="13" width="2" height="1" fill="#ce0000"/><rect x="17" y="13" width="1" height="1" fill="#ef0000"/><rect x="18" y="13" width="1" height="1" fill="#d60000"/><rect x="19" y="13" width="1" height="1" fill="#e70000"/><rect x="20" y="13" width="1" height="1" fill="#ff0000"/><rect x="21" y="13" width="1" height="1" fill="#e74242"/><rect x="22" y="13" width="1" height="1" fill="#f7bd8c"/><rect x="23" y="13" width="1" height="1" fill="#f7bdbd"/><rect x="24" y="13" width="1" height="1" fill="#ffff7b"/><rect x="25" y="13" width="1" height="1" fill="#9cad00"/><rect x="26" y="13" width="1" height="1" fill="#bdbdbd"/><rect x="27" y="13" width="1" height="1" fill="#ced6bd"/><rect x="28" y="13" width="1" height="1" fill="#bdbdbd"/><rect x="29" y="13" width="1" height="1" fill="#102131"/><rect x="0" y="14" width="1" height="1" fill="#9cad00"/><rect x="1" y="14" width="1" height="1" fill="#efefef"/><rect x="2" y="14" width="1" height="1" fill="#ffff7b"/><rect x="3" y="14" width="1" height="1" fill="#de4a21"/><rect x="4" y="14" width="3" height="1" fill="#ff0000"/><rect x="7" y="14" width="1" height="1" fill="#f70000"/><rect x="8" y="14" width="1" height="1" fill="#de0000"/><rect x="9" y="14" width="2" height="1" fill="#ce0000"/><rect x="11" y="14" width="1" height="1" fill="#d60000"/><rect x="12" y="14" width="1" height="1" fill="#f70000"/><rect x="13" y="14" width="1" height="1" fill="#e76b31"/><rect x="14" y="14" width="1" height="1" fill="#ce0000"/><rect x="15" y="14" width="1" height="1" fill="#d61808"/><rect x="16" y="14" width="1" height="1" fill="#de4a29"/><rect x="17" y="14" width="1" height="1" fill="#de1008"/><rect x="18" y="14" width="1" height="1" fill="#ffad6b"/><rect x="19" y="14" width="1" height="1" fill="#ffde6b"/><rect x="20" y="14" width="1" height="1" fill="#f70000"/><rect x="21" y="14" width="1" height="1" fill="#d61808"/><rect x="22" y="14" width="1" height="1" fill="#f7ad63"/><rect x="23" y="14" width="2" height="1" fill="#ffff7b"/><rect x="25" y="14" width="1" height="1" fill="#ced67b"/><rect x="26" y="14" width="1" height="1" fill="#9c7b00"/><rect x="27" y="14" width="1" height="1" fill="#cecece"/><rect x="28" y="14" width="1" height="1" fill="#ced6bd"/><rect x="29" y="14" width="1" height="1" fill="#cecece"/><rect x="0" y="15" width="1" height="1" fill="#9c7b00"/><rect x="1" y="15" width="1" height="1" fill="#efefef"/><rect x="2" y="15" width="1" height="1" fill="#ffff7b"/><rect x="3" y="15" width="1" height="1" fill="#ffef73"/><rect x="4" y="15" width="1" height="1" fill="#de4221"/><rect x="5" y="15" width="1" height="1" fill="#f70000"/><rect x="6" y="15" width="1" height="1" fill="#ff0000"/><rect x="7" y="15" width="1" height="1" fill="#e70000"/><rect x="8" y="15" width="1" height="1" fill="#f70000"/><rect x="9" y="15" width="1" height="1" fill="#d60000"/><rect x="10" y="15" width="1" height="1" fill="#e70000"/><rect x="11" y="15" width="1" height="1" fill="#f70000"/><rect x="12" y="15" width="1" height="1" fill="#ff0000"/><rect x="13" y="15" width="1" height="1" fill="#ef9c73"/><rect x="14" y="15" width="1" height="1" fill="#ffff7b"/><rect x="15" y="15" width="1" height="1" fill="#ffffbd"/><rect x="16" y="15" width="1" height="1" fill="#ef9c4a"/><rect x="17" y="15" width="1" height="1" fill="#d61808"/><rect x="18" y="15" width="1" height="1" fill="#ffde6b"/><rect x="19" y="15" width="1" height="1" fill="#ffff7b"/><rect x="20" y="15" width="1" height="1" fill="#f7ce63"/><rect x="21" y="15" width="1" height="1" fill="#de4a29"/><rect x="22" y="15" width="1" height="1" fill="#ffefb5"/><rect x="23" y="15" width="1" height="1" fill="#ffff7b"/><rect x="24" y="15" width="1" height="1" fill="#ffd67b"/><rect x="25" y="15" width="1" height="1" fill="#ffff7b"/><rect x="26" y="15" width="1" height="1" fill="#9c7b00"/><rect x="27" y="15" width="2" height="1" fill="#ced6bd"/><rect x="29" y="15" width="1" height="1" fill="#ceffbd"/><rect x="30" y="15" width="1" height="1" fill="#bdbdbd"/><rect x="0" y="16" width="1" height="1" fill="#9cad00"/><rect x="1" y="16" width="1" height="1" fill="#efefef"/><rect x="2" y="16" width="1" height="1" fill="#ffff7b"/><rect x="3" y="16" width="1" height="1" fill="#ffffbd"/><rect x="4" y="16" width="1" height="1" fill="#ffff7b"/><rect x="5" y="16" width="1" height="1" fill="#ef4221"/><rect x="6" y="16" width="6" height="1" fill="#ff0000"/><rect x="12" y="16" width="1" height="1" fill="#ff2110"/><rect x="13" y="16" width="1" height="1" fill="#d63118"/><rect x="14" y="16" width="2" height="1" fill="#ffff7b"/><rect x="16" y="16" width="1" height="1" fill="#ffde6b"/><rect x="17" y="16" width="1" height="1" fill="#ffbda5"/><rect x="18" y="16" width="1" height="1" fill="#ffff7b"/><rect x="19" y="16" width="1" height="1" fill="#ffd6bd"/><rect x="20" y="16" width="1" height="1" fill="#ffffbd"/><rect x="21" y="16" width="2" height="1" fill="#ffff7b"/><rect x="23" y="16" width="1" height="1" fill="#ffd67b"/><rect x="24" y="16" width="1" height="1" fill="#ffffbd"/><rect x="25" y="16" width="1" height="1" fill="#ffff7b"/><rect x="26" y="16" width="1" height="1" fill="#637b00"/><rect x="27" y="16" width="1" height="1" fill="#cecece"/><rect x="28" y="16" width="1" height="1" fill="#dedede"/><rect x="29" y="16" width="1" height="1" fill="#bdbdbd"/><rect x="0" y="17" width="1" height="1" fill="#9c7b00"/><rect x="1" y="17" width="1" height="1" fill="#efefef"/><rect x="2" y="17" width="3" height="1" fill="#ffff7b"/><rect x="5" y="17" width="1" height="1" fill="#ffffbd"/><rect x="6" y="17" width="1" height="1" fill="#de1008"/><rect x="7" y="17" width="1" height="1" fill="#de4231"/><rect x="8" y="17" width="1" height="1" fill="#de5229"/><rect x="9" y="17" width="1" height="1" fill="#ef0000"/><rect x="10" y="17" width="2" height="1" fill="#ff0800"/><rect x="12" y="17" width="1" height="1" fill="#de4a21"/><rect x="13" y="17" width="1" height="1" fill="#ef8c7b"/><rect x="14" y="17" width="1" height="1" fill="#ffff7b"/><rect x="15" y="17" width="1" height="1" fill="#ffd6bd"/><rect x="16" y="17" width="6" height="1" fill="#ffff7b"/><rect x="22" y="17" width="1" height="1" fill="#ffffbd"/><rect x="23" y="17" width="1" height="1" fill="#ffff7b"/><rect x="24" y="17" width="1" height="1" fill="#ffd67b"/><rect x="25" y="17" width="1" height="1" fill="#ffff7b"/><rect x="26" y="17" width="1" height="1" fill="#ced67b"/><rect x="27" y="17" width="1" height="1" fill="#9cad00"/><rect x="28" y="17" width="1" height="1" fill="#bdbdbd"/><rect x="29" y="17" width="1" height="1" fill="#102131"/><rect x="0" y="18" width="1" height="1" fill="#081018"/><rect x="1" y="18" width="1" height="1" fill="#9cad00"/><rect x="2" y="18" width="1" height="1" fill="#ffffff"/><rect x="3" y="18" width="3" height="1" fill="#ffff7b"/><rect x="6" y="18" width="1" height="1" fill="#de5229"/><rect x="7" y="18" width="1" height="1" fill="#ce0808"/><rect x="8" y="18" width="1" height="1" fill="#e78442"/><rect x="9" y="18" width="1" height="1" fill="#f7ad63"/><rect x="10" y="18" width="1" height="1" fill="#f73118"/><rect x="11" y="18" width="1" height="1" fill="#e74221"/><rect x="12" y="18" width="1" height="1" fill="#ff6331"/><rect x="13" y="18" width="1" height="1" fill="#ef8442"/><rect x="14" y="18" width="4" height="1" fill="#ffff7b"/><rect x="18" y="18" width="1" height="1" fill="#ffffbd"/><rect x="19" y="18" width="1" height="1" fill="#ffd67b"/><rect x="20" y="18" width="1" height="1" fill="#ffff7b"/><rect x="21" y="18" width="1" height="1" fill="#ffd67b"/><rect x="22" y="18" width="2" height="1" fill="#ffff7b"/><rect x="24" y="18" width="1" height="1" fill="#ffffbd"/><rect x="25" y="18" width="1" height="1" fill="#ffff7b"/><rect x="26" y="18" width="1" height="1" fill="#ffd67b"/><rect x="27" y="18" width="1" height="1" fill="#9c7b00"/><rect x="28" y="18" width="1" height="1" fill="#000000"/><rect x="29" y="18" width="1" height="1" fill="#312900"/><rect x="1" y="19" width="1" height="1" fill="#9c7b00"/><rect x="2" y="19" width="1" height="1" fill="#efefef"/><rect x="3" y="19" width="1" height="1" fill="#ffff7b"/><rect x="4" y="19" width="1" height="1" fill="#ffd6bd"/><rect x="5" y="19" width="1" height="1" fill="#ffff7b"/><rect x="6" y="19" width="1" height="1" fill="#ffdea5"/><rect x="7" y="19" width="1" height="1" fill="#de4221"/><rect x="8" y="19" width="1" height="1" fill="#d61010"/><rect x="9" y="19" width="1" height="1" fill="#f7ce63"/><rect x="10" y="19" width="1" height="1" fill="#d63929"/><rect x="11" y="19" width="1" height="1" fill="#ffbd6b"/><rect x="12" y="19" width="1" height="1" fill="#d60000"/><rect x="13" y="19" width="1" height="1" fill="#d61808"/><rect x="14" y="19" width="1" height="1" fill="#d63118"/><rect x="15" y="19" width="1" height="1" fill="#ffffbd"/><rect x="16" y="19" width="1" height="1" fill="#ffd67b"/><rect x="17" y="19" width="1" height="1" fill="#ffff7b"/><rect x="18" y="19" width="2" height="1" fill="#ffd67b"/><rect x="20" y="19" width="1" height="1" fill="#ffffbd"/><rect x="21" y="19" width="1" height="1" fill="#ffd67b"/><rect x="22" y="19" width="1" height="1" fill="#ffffbd"/><rect x="23" y="19" width="1" height="1" fill="#ffd67b"/><rect x="24" y="19" width="1" height="1" fill="#ffff7b"/><rect x="25" y="19" width="2" height="1" fill="#ffd67b"/><rect x="27" y="19" width="1" height="1" fill="#9c7b00"/><rect x="28" y="19" width="2" height="1" fill="#312900"/><rect x="1" y="20" width="1" height="1" fill="#9cad00"/><rect x="2" y="20" width="1" height="1" fill="#ffffff"/><rect x="3" y="20" width="4" height="1" fill="#ffff7b"/><rect x="7" y="20" width="1" height="1" fill="#f7ad63"/><rect x="8" y="20" width="1" height="1" fill="#f7c663"/><rect x="9" y="20" width="1" height="1" fill="#ffc673"/><rect x="10" y="20" width="1" height="1" fill="#e76b31"/><rect x="11" y="20" width="2" height="1" fill="#f7ce63"/><rect x="13" y="20" width="1" height="1" fill="#ffef73"/><rect x="14" y="20" width="1" height="1" fill="#d62910"/><rect x="15" y="20" width="1" height="1" fill="#f79c5a"/><rect x="16" y="20" width="1" height="1" fill="#ffff7b"/><rect x="17" y="20" width="1" height="1" fill="#ffd6bd"/><rect x="18" y="20" width="2" height="1" fill="#ffff7b"/><rect x="20" y="20" width="1" height="1" fill="#ffd67b"/><rect x="21" y="20" width="1" height="1" fill="#ffff7b"/><rect x="22" y="20" width="1" height="1" fill="#ffd67b"/><rect x="23" y="20" width="1" height="1" fill="#ffff7b"/><rect x="24" y="20" width="1" height="1" fill="#ffd67b"/><rect x="25" y="20" width="1" height="1" fill="#ffffbd"/><rect x="26" y="20" width="1" height="1" fill="#ffd67b"/><rect x="27" y="20" width="1" height="1" fill="#ced67b"/><rect x="28" y="20" width="1" height="1" fill="#002900"/><rect x="29" y="20" width="1" height="1" fill="#312900"/><rect x="1" y="21" width="1" height="1" fill="#637b00"/><rect x="2" y="21" width="1" height="1" fill="#ffd6ff"/><rect x="3" y="21" width="1" height="1" fill="#ffff7b"/><rect x="4" y="21" width="1" height="1" fill="#ffffbd"/><rect x="5" y="21" width="1" height="1" fill="#ffff7b"/><rect x="6" y="21" width="1" height="1" fill="#ffd67b"/><rect x="7" y="21" width="1" height="1" fill="#ffffbd"/><rect x="8" y="21" width="2" height="1" fill="#ffff7b"/><rect x="10" y="21" width="1" height="1" fill="#e76331"/><rect x="11" y="21" width="1" height="1" fill="#e7635a"/><rect x="12" y="21" width="1" height="1" fill="#ffff7b"/><rect x="13" y="21" width="1" height="1" fill="#ffd6bd"/><rect x="14" y="21" width="1" height="1" fill="#ffff7b"/><rect x="15" y="21" width="1" height="1" fill="#ffffbd"/><rect x="16" y="21" width="2" height="1" fill="#ffd67b"/><rect x="18" y="21" width="1" height="1" fill="#ffff7b"/><rect x="19" y="21" width="1" height="1" fill="#ffd6bd"/><rect x="20" y="21" width="1" height="1" fill="#ffff7b"/><rect x="21" y="21" width="1" height="1" fill="#ffffbd"/><rect x="22" y="21" width="1" height="1" fill="#ffd67b"/><rect x="23" y="21" width="1" height="1" fill="#ffffbd"/><rect x="24" y="21" width="1" height="1" fill="#ffd67b"/><rect x="25" y="21" width="1" height="1" fill="#ffff7b"/><rect x="26" y="21" width="2" height="1" fill="#ffd67b"/><rect x="28" y="21" width="2" height="1" fill="#312900"/><rect x="1" y="22" width="1" height="1" fill="#081818"/><rect x="2" y="22" width="1" height="1" fill="#9c7b00"/><rect x="3" y="22" width="1" height="1" fill="#ffffff"/><rect x="4" y="22" width="1" height="1" fill="#ffff7b"/><rect x="5" y="22" width="1" height="1" fill="#ffd67b"/><rect x="6" y="22" width="1" height="1" fill="#ffff7b"/><rect x="7" y="22" width="1" height="1" fill="#ffd67b"/><rect x="8" y="22" width="1" height="1" fill="#ffff7b"/><rect x="9" y="22" width="1" height="1" fill="#ffd6bd"/><rect x="10" y="22" width="2" height="1" fill="#ffff7b"/><rect x="12" y="22" width="1" height="1" fill="#ffd67b"/><rect x="13" y="22" width="1" height="1" fill="#ffff7b"/><rect x="14" y="22" width="1" height="1" fill="#ffd67b"/><rect x="15" y="22" width="2" height="1" fill="#ffff7b"/><rect x="17" y="22" width="1" height="1" fill="#ffffbd"/><rect x="18" y="22" width="1" height="1" fill="#ffad63"/><rect x="19" y="22" width="1" height="1" fill="#ffef73"/><rect x="20" y="22" width="2" height="1" fill="#ffd67b"/><rect x="22" y="22" width="1" height="1" fill="#ffff7b"/><rect x="23" y="22" width="1" height="1" fill="#ffd67b"/><rect x="24" y="22" width="1" height="1" fill="#ffff7b"/><rect x="25" y="22" width="1" height="1" fill="#ffd67b"/><rect x="26" y="22" width="1" height="1" fill="#ffffbd"/><rect x="27" y="22" width="1" height="1" fill="#ffd67b"/><rect x="28" y="22" width="2" height="1" fill="#312900"/><rect x="2" y="23" width="1" height="1" fill="#9c7b00"/><rect x="3" y="23" width="1" height="1" fill="#efefef"/><rect x="4" y="23" width="1" height="1" fill="#ffff7b"/><rect x="5" y="23" width="1" height="1" fill="#ffffbd"/><rect x="6" y="23" width="1" height="1" fill="#ffff7b"/><rect x="7" y="23" width="1" height="1" fill="#ffffbd"/><rect x="8" y="23" width="2" height="1" fill="#ffff7b"/><rect x="10" y="23" width="1" height="1" fill="#ffd67b"/><rect x="11" y="23" width="1" height="1" fill="#ffffbd"/><rect x="12" y="23" width="1" height="1" fill="#ffff7b"/><rect x="13" y="23" width="1" height="1" fill="#ffd67b"/><rect x="14" y="23" width="1" height="1" fill="#ffffbd"/><rect x="15" y="23" width="1" height="1" fill="#ffff7b"/><rect x="16" y="23" width="1" height="1" fill="#ffd67b"/><rect x="17" y="23" width="1" height="1" fill="#ff945a"/><rect x="18" y="23" width="1" height="1" fill="#ff0000"/><rect x="19" y="23" width="1" height="1" fill="#ff5a4a"/><rect x="20" y="23" width="1" height="1" fill="#ffff7b"/><rect x="21" y="23" width="1" height="1" fill="#ffffbd"/><rect x="22" y="23" width="1" height="1" fill="#ffd67b"/><rect x="23" y="23" width="1" height="1" fill="#ffffbd"/><rect x="24" y="23" width="4" height="1" fill="#ffd67b"/><rect x="28" y="23" width="1" height="1" fill="#637b00"/><rect x="29" y="23" width="1" height="1" fill="#312900"/><rect x="2" y="24" width="1" height="1" fill="#9cad00"/><rect x="3" y="24" width="1" height="1" fill="#efefef"/><rect x="4" y="24" width="1" height="1" fill="#ffd67b"/><rect x="5" y="24" width="3" height="1" fill="#ffff7b"/><rect x="8" y="24" width="1" height="1" fill="#ffd67b"/><rect x="9" y="24" width="1" height="1" fill="#ffffbd"/><rect x="10" y="24" width="2" height="1" fill="#ffff7b"/><rect x="12" y="24" width="1" height="1" fill="#ffd67b"/><rect x="13" y="24" width="1" height="1" fill="#ffff7b"/><rect x="14" y="24" width="2" height="1" fill="#ffd67b"/><rect x="16" y="24" width="1" height="1" fill="#ffffbd"/><rect x="17" y="24" width="1" height="1" fill="#ffce63"/><rect x="18" y="24" width="1" height="1" fill="#ff0800"/><rect x="19" y="24" width="1" height="1" fill="#ff1808"/><rect x="20" y="24" width="2" height="1" fill="#ffd67b"/><rect x="22" y="24" width="1" height="1" fill="#ffff7b"/><rect x="23" y="24" width="1" height="1" fill="#ffd67b"/><rect x="24" y="24" width="1" height="1" fill="#ffff7b"/><rect x="25" y="24" width="1" height="1" fill="#ffd6bd"/><rect x="26" y="24" width="1" height="1" fill="#ffff7b"/><rect x="27" y="24" width="1" height="1" fill="#ffd67b"/><rect x="28" y="24" width="1" height="1" fill="#9c7b00"/><rect x="29" y="24" width="1" height="1" fill="#312900"/><rect x="2" y="25" width="1" height="1" fill="#9cad00"/><rect x="3" y="25" width="1" height="1" fill="#efefef"/><rect x="4" y="25" width="1" height="1" fill="#ffff7b"/><rect x="5" y="25" width="1" height="1" fill="#ffd6bd"/><rect x="6" y="25" width="1" height="1" fill="#ffff7b"/><rect x="7" y="25" width="1" height="1" fill="#ffd6bd"/><rect x="8" y="25" width="2" height="1" fill="#ffff7b"/><rect x="10" y="25" width="1" height="1" fill="#ffd67b"/><rect x="11" y="25" width="1" height="1" fill="#ffd6bd"/><rect x="12" y="25" width="1" height="1" fill="#ffff7b"/><rect x="13" y="25" width="1" height="1" fill="#ffffbd"/><rect x="14" y="25" width="1" height="1" fill="#ffd67b"/><rect x="15" y="25" width="2" height="1" fill="#ffff7b"/><rect x="17" y="25" width="1" height="1" fill="#ffd67b"/><rect x="18" y="25" width="1" height="1" fill="#ffd6bd"/><rect x="19" y="25" width="1" height="1" fill="#ffff7b"/><rect x="20" y="25" width="1" height="1" fill="#ffd6bd"/><rect x="21" y="25" width="1" height="1" fill="#ffff7b"/><rect x="22" y="25" width="1" height="1" fill="#ffd6bd"/><rect x="23" y="25" width="1" height="1" fill="#ffd67b"/><rect x="24" y="25" width="1" height="1" fill="#ffad7b"/><rect x="25" y="25" width="1" height="1" fill="#ffff7b"/><rect x="26" y="25" width="1" height="1" fill="#ffd67b"/><rect x="27" y="25" width="1" height="1" fill="#ffd6bd"/><rect x="28" y="25" width="1" height="1" fill="#9c7b00"/><rect x="29" y="25" width="1" height="1" fill="#312900"/><rect x="2" y="26" width="1" height="1" fill="#102131"/><rect x="3" y="26" width="1" height="1" fill="#9c7b00"/><rect x="4" y="26" width="2" height="1" fill="#ffff7b"/><rect x="6" y="26" width="1" height="1" fill="#ffd67b"/><rect x="7" y="26" width="2" height="1" fill="#ffff7b"/><rect x="9" y="26" width="1" height="1" fill="#ffd6bd"/><rect x="10" y="26" width="2" height="1" fill="#ffff7b"/><rect x="12" y="26" width="2" height="1" fill="#ffd67b"/><rect x="14" y="26" width="1" height="1" fill="#ffff7b"/><rect x="15" y="26" width="2" height="1" fill="#ffd6bd"/><rect x="17" y="26" width="2" height="1" fill="#ffff7b"/><rect x="19" y="26" width="1" height="1" fill="#ffd67b"/><rect x="20" y="26" width="1" height="1" fill="#ffff7b"/><rect x="21" y="26" width="1" height="1" fill="#ffd67b"/><rect x="22" y="26" width="1" height="1" fill="#ffff7b"/><rect x="23" y="26" width="1" height="1" fill="#ffd67b"/><rect x="24" y="26" width="1" height="1" fill="#ffffbd"/><rect x="25" y="26" width="3" height="1" fill="#ffd67b"/><rect x="28" y="26" width="1" height="1" fill="#637b00"/><rect x="29" y="26" width="1" height="1" fill="#312900"/><rect x="3" y="27" width="1" height="1" fill="#9c7b00"/><rect x="4" y="27" width="1" height="1" fill="#ffd6bd"/><rect x="5" y="27" width="2" height="1" fill="#ffd67b"/><rect x="7" y="27" width="1" height="1" fill="#ffd6bd"/><rect x="8" y="27" width="4" height="1" fill="#ffd67b"/><rect x="12" y="27" width="1" height="1" fill="#ffd6bd"/><rect x="13" y="27" width="5" height="1" fill="#ffd67b"/><rect x="18" y="27" width="1" height="1" fill="#ffd6bd"/><rect x="19" y="27" width="1" height="1" fill="#ffd67b"/><rect x="20" y="27" width="1" height="1" fill="#ffad7b"/><rect x="21" y="27" width="1" height="1" fill="#ffd6bd"/><rect x="22" y="27" width="1" height="1" fill="#ffad7b"/><rect x="23" y="27" width="3" height="1" fill="#ffd67b"/><rect x="26" y="27" width="1" height="1" fill="#ffd6bd"/><rect x="27" y="27" width="1" height="1" fill="#ffd67b"/><rect x="28" y="27" width="1" height="1" fill="#9c7b00"/><rect x="29" y="27" width="1" height="1" fill="#312900"/><rect x="3" y="28" width="1" height="1" fill="#9cad00"/><rect x="4" y="28" width="1" height="1" fill="#637b00"/><rect x="5" y="28" width="1" height="1" fill="#9cad00"/><rect x="6" y="28" width="8" height="1" fill="#9c7b00"/><rect x="14" y="28" width="1" height="1" fill="#637b00"/><rect x="15" y="28" width="2" height="1" fill="#9c7b00"/><rect x="17" y="28" width="1" height="1" fill="#637b00"/><rect x="18" y="28" width="1" height="1" fill="#9c7b00"/><rect x="19" y="28" width="1" height="1" fill="#637b00"/><rect x="20" y="28" width="1" height="1" fill="#9c7b00"/><rect x="21" y="28" width="1" height="1" fill="#63ad00"/><rect x="22" y="28" width="1" height="1" fill="#9c7b00"/><rect x="23" y="28" width="1" height="1" fill="#63ad00"/><rect x="24" y="28" width="1" height="1" fill="#9c7b00"/><rect x="25" y="28" width="1" height="1" fill="#637b00"/><rect x="26" y="28" width="1" height="1" fill="#9c7b00"/><rect x="27" y="28" width="1" height="1" fill="#637b00"/><rect x="28" y="28" width="1" height="1" fill="#9cad00"/><rect x="29" y="28" width="1" height="1" fill="#312900"/><rect x="4" y="29" width="25" height="1" fill="#312900"/></svg>